<svg width="24" height="24" viewBox="0 0 24 24" fill="none" xmlns="http://www.w3.org/2000/svg">
<path d="M4.25 11.875C3.61667 11.875 3.08333 11.6583 2.65 11.225C2.21667 10.7917 2 10.2583 2 9.625C2 8.99167 2.21667 8.45833 2.65 8.025C3.08333 7.59167 3.61667 7.375 4.25 7.375C4.88333 7.375 5.41667 7.59167 5.85 8.025C6.28333 8.45833 6.5 8.99167 6.5 9.625C6.5 10.2583 6.28333 10.7917 5.85 11.225C5.41667 11.6583 4.88333 11.875 4.25 11.875ZM8.875 7.625C8.24167 7.625 7.70833 7.40833 7.275 6.975C6.84167 6.54167 6.625 6.00833 6.625 5.375C6.625 4.74167 6.84167 4.20833 7.275 3.775C7.70833 3.34167 8.24167 3.125 8.875 3.125C9.50833 3.125 10.0417 3.34167 10.475 3.775C10.9083 4.20833 11.125 4.74167 11.125 5.375C11.125 6.00833 10.9083 6.54167 10.475 6.975C10.0417 7.40833 9.50833 7.625 8.875 7.625ZM15.125 7.625C14.4917 7.625 13.9583 7.40833 13.525 6.975C13.0917 6.54167 12.875 6.00833 12.875 5.375C12.875 4.74167 13.0917 4.20833 13.525 3.775C13.9583 3.34167 14.4917 3.125 15.125 3.125C15.7583 3.125 16.2917 3.34167 16.725 3.775C17.1583 4.20833 17.375 4.74167 17.375 5.375C17.375 6.00833 17.1583 6.54167 16.725 6.975C16.2917 7.40833 15.7583 7.625 15.125 7.625V7.625ZM19.75 11.875C19.1167 11.875 18.5833 11.6583 18.15 11.225C17.7167 10.7917 17.5 10.2583 17.5 9.625C17.5 8.99167 17.7167 8.45833 18.15 8.025C18.5833 7.59167 19.1167 7.375 19.75 7.375C20.3833 7.375 20.9167 7.59167 21.35 8.025C21.7833 8.45833 22 8.99167 22 9.625C22 10.2583 21.7833 10.7917 21.35 11.225C20.9167 11.6583 20.3833 11.875 19.75 11.875ZM6.65 22.125C5.95 22.125 5.375 21.8625 4.925 21.3375C4.475 20.8125 4.25 20.1917 4.25 19.475C4.25 18.775 4.4625 18.1542 4.8875 17.6125C5.3125 17.0708 5.76667 16.55 6.25 16.05C6.61667 15.6833 6.95833 15.2958 7.275 14.8875C7.59167 14.4792 7.89167 14.0583 8.175 13.625C8.65833 12.8917 9.2 12.2083 9.8 11.575C10.4 10.9417 11.1333 10.625 12 10.625C12.8667 10.625 13.6042 10.9417 14.2125 11.575C14.8208 12.2083 15.3667 12.9 15.85 13.65C16.1333 14.0833 16.4292 14.5 16.7375 14.9C17.0458 15.3 17.3833 15.6833 17.75 16.05C18.2333 16.55 18.6875 17.0708 19.1125 17.6125C19.5375 18.1542 19.75 18.775 19.75 19.475C19.75 20.1917 19.525 20.8125 19.075 21.3375C18.625 21.8625 18.05 22.125 17.35 22.125C16.45 22.125 15.5583 22.05 14.675 21.9C13.7917 21.75 12.9 21.675 12 21.675C11.1 21.675 10.2083 21.75 9.325 21.9C8.44167 22.05 7.55 22.125 6.65 22.125V22.125Z" fill="#999999"/>
</svg>
